Patient4_TMGait_0pt3_02_left_20_GRF.mot
version=1
nRows=45
nColumns=19
inDegrees=no
endheader
time	F1x	F1y	F1z	M1x	M1y	M1z	F2x	F2y	F2z	M2x	M2y	M2z	EC1x	EC1y	EC1z	EC2x	EC2y	EC2z
39.08	-8.4243	5.2054	-0.91553	-1.5963	-2.0926	2.3002	-16.284	770.7593	-43.3197	290.4212	52.7599	754.0324	-0.0592	0.0182	-0.0073	-0.0462	0.0165	0.9585
39.1	-5.8241	3.6274	-0.55516	-1.1372	-1.5523	1.735	-17.554	781.0986	-42.5459	295.047	52.0834	763.3838	-0.0592	0.0182	-0.0073	-0.0462	0.0165	0.9585
39.12	-3.5991	2.2828	-0.27207	-0.73805	-1.0556	1.2449	-19.1453	795.4141	-41.54	301.0973	51.2316	776.0196	-0.0592	0.0182	-0.0073	-0.0462	0.0165	0.9585
39.14	-1.8898	1.2592	-0.077102	-0.42601	-0.64142	0.8692	-20.8663	813.0578	-40.4384	308.2492	50.264	791.2573	-0.0592	0.0182	-0.0073	-0.0462	0.0165	0.9585
39.16	-0.69911	0.56053	0.037751	-0.20503	-0.31929	0.61675	-22.4429	832.349	-39.4047	315.8088	49.2365	807.4807	-0.0592	0.0182	-0.0073	-0.0462	0.0165	0.9585
39.18	0.044962	0.14065	0.091078	-0.065914	-0.086707	0.48226	-23.5808	850.7343	-38.5723	322.7722	48.1745	822.2898	-0.0592	0.0182	-0.0073	-0.0462	0.0165	0.9585
39.2	0.44152	-0.07317	0.10173	0.010731	0.065892	0.43681	-24.0358	865.3033	-38.0023	328.0243	47.0589	832.993	-0.0592	0.0182	-0.0073	-0.0462	0.0165	0.9585
39.22	0.58827	-0.16613	0.087338	0.050633	0.1527	0.43044	-23.6611	873.5375	-37.6761	330.6253	45.835	837.3181	-0.0592	0.0182	-0.0073	-0.0462	0.0165	0.9585
39.24	0.56832	-0.22245	0.062853	0.08061	0.18733	0.40525	-22.4333	873.9501	-37.5142	330.0525	44.4406	834.0096	-0.0592	0.0182	-0.0073	-0.0462	0.0165	0.9585
39.26	0.44737	-0.32122	0.038634	0.12663	0.18115	0.2989	-20.4299	866.3868	-37.4071	326.3089	42.8275	823.086	-0.0592	0.0182	-0.0073	-0.0462	0.0165	0.9585
39.28	0.27729	-0.53497	0.02086	0.21423	0.14335	0.048705	-17.7824	851.9459	-37.2585	319.8807	40.9829	805.7241	-0.0592	0.0182	-0.0073	-0.0462	0.0165	0.9585
39.3	0.096643	-0.92714	0.011887	0.36565	0.082345	-0.4015	-14.6561	832.6131	-37.0106	311.5845	38.9429	783.896	-0.0592	0.0182	-0.0073	-0.0462	0.0165	0.9585
39.32	-0.06795	-1.5448	0.0093371	0.59818	0.011744	-1.1015	-11.2291	810.762	-36.666	302.3675	36.7971	759.8876	-0.0592	0.0182	-0.0073	-0.0462	0.0165	0.9585
39.34	-0.19182	-2.4032	0.0076464	0.91668	-0.047996	-2.0678	-7.6604	788.7158	-36.2763	293.1399	34.6618	735.8808	-0.0592	0.0182	-0.0073	-0.0462	0.0165	0.9585
39.36	-0.24145	-3.4595	-0.0018878	1.304	-0.071638	-3.2469	-4.0771	768.4422	-35.9205	284.6646	32.6545	713.6703	-0.0592	0.0182	-0.0073	-0.0462	0.0165	0.9585
39.38	-0.17081	-4.5828	-0.029733	1.7108	-0.031161	-4.4965	-0.57651	751.3454	-35.6794	277.4855	30.8731	694.4821	-0.0592	0.0182	-0.0073	-0.0462	0.0165	0.9585
39.4	0.077068	-5.517	-0.082699	2.041	0.10356	-5.5474	2.79	738.1798	-35.6039	271.9037	29.3658	678.9096	-0.0592	0.0182	-0.0073	-0.0462	0.0165	0.9585
39.42	0.56771	-5.8364	-0.16101	2.1351	0.35998	-5.9522	6.0156	729.0688	-35.6982	267.9869	28.1172	666.9557	-0.0592	0.0182	-0.0073	-0.0462	0.0165	0.9585
39.44	1.3694	-4.9126	-0.25629	1.7583	0.75712	-5.0538	9.134	723.5997	-35.9355	265.5999	27.0657	658.1373	-0.0592	0.0182	-0.0073	-0.0462	0.0165	0.9585
39.46	2.5341	-1.9047	-0.35054	0.59869	1.2991	-1.9763	12.2037	720.959	-36.2601	264.4486	26.1184	651.6238	-0.0592	0.0182	-0.0073	-0.0462	0.0165	0.9585
39.48	4.068	4.1919	-0.41029	-1.7168	1.9529	4.3374	15.276	720.066	-36.5937	264.1263	25.1703	646.3909	-0.0592	0.0182	-0.0073	-0.0462	0.0165	0.9585
39.5	5.8829	14.4261	-0.38274	-5.5765	2.6264	14.9954	18.3704	719.6548	-36.8528	264.1418	24.1298	641.3168	-0.0592	0.0182	-0.0073	-0.0462	0.0165	0.9585
39.52	7.7353	29.6675	-0.19469	-11.2971	3.1446	30.9229	21.4421	718.293	-36.9591	263.925	22.9406	635.2116	-0.0592	0.0182	-0.0073	-0.0462	0.0165	0.9585
39.54	9.1133	50.2951	0.25703	-19.0079	3.202	52.5485	24.3666	714.3931	-36.8437	262.8354	21.5892	626.8273	-0.0592	0.0182	-0.0073	-0.0462	0.0165	0.9585
39.56	9.3354	75.9605	1.1248	-28.5623	2.382	79.5587	26.9613	706.3665	-36.4655	260.2249	20.1122	614.9771	-0.0592	0.0182	-0.0073	-0.0462	0.0165	0.9585
39.58	8.131	105.6529	2.5601	-39.5587	0.41995	110.948	29.0262	692.9721	-35.8209	255.5744	18.5872	598.8208	-0.0592	0.0182	-0.0073	-0.0462	0.0165	0.9585
39.6	5.7021	137.5895	4.6747	-51.3088	-2.7321	144.8574	30.3608	673.6809	-34.9369	248.636	17.1194	578.144	-0.0592	0.0182	-0.0073	-0.0462	0.0165	0.9585
39.62	2.5288	169.3386	7.3346	-62.9102	-6.7547	178.7087	30.8255	648.9614	-33.8695	239.5448	15.8171	553.5418	-0.0592	0.0182	-0.0073	-0.0462	0.0165	0.9585
39.64	-0.82942	198.7127	10.0412	-73.5871	-10.9005	210.1635	30.4253	620.3564	-32.7102	228.8511	14.7662	526.4216	-0.0592	0.0182	-0.0073	-0.0462	0.0165	0.9585
39.66	-3.98	224.6952	12.2984	-83.0025	-14.4975	238.1328	29.3449	590.1348	-31.5748	217.3975	14.0087	498.6731	-0.0592	0.0182	-0.0073	-0.0462	0.0165	0.9585
39.68	-6.7552	247.3734	13.8222	-91.2117	-17.1915	262.728	27.8847	560.5746	-30.5604	206.0535	13.5227	472.0831	-0.0592	0.0182	-0.0073	-0.0462	0.0165	0.9585
39.7	-9.1317	267.356	14.5706	-98.4418	-18.9401	284.6259	26.3074	533.2553	-29.7047	195.4492	13.2473	447.8064	-0.0592	0.0182	-0.0073	-0.0462	0.0165	0.9585
39.72	-11.1512	285.3251	14.7234	-104.929	-19.9525	304.5551	24.7588	508.7517	-28.9827	185.8511	13.1109	426.1643	-0.0592	0.0182	-0.0073	-0.0462	0.0165	0.9585
39.74	-12.8764	301.9558	14.5903	-110.898	-20.5768	323.184	23.3098	486.808	-28.3517	177.2163	13.05	406.8117	-0.0592	0.0182	-0.0073	-0.0462	0.0165	0.9585
39.76	-14.396	318.0212	14.4792	-116.6107	-21.1609	341.2465	22.0062	466.7184	-27.767	169.3283	13.0057	389.0633	-0.0592	0.0182	-0.0073	-0.0462	0.0165	0.9585
39.78	-15.8097	334.3749	14.6099	-122.3664	-21.9576	359.541	20.8976	447.5844	-27.1593	161.8915	12.9031	372.1112	-0.0592	0.0182	-0.0073	-0.0462	0.0165	0.9585
39.8	-17.1788	351.8036	15.0907	-128.4477	-23.0881	378.7862	20.0427	428.5149	-26.4313	154.6059	12.649	355.1984	-0.0592	0.0182	-0.0073	-0.0462	0.0165	0.9585
39.82	-18.4996	370.843	15.9604	-135.0486	-24.5786	399.4502	19.4852	408.8338	-25.4924	147.2418	12.1651	337.7839	-0.0592	0.0182	-0.0073	-0.0462	0.0165	0.9585
39.84	-19.7362	391.6275	17.2131	-142.2155	-26.401	421.6078	19.232	388.2148	-24.3038	139.6838	11.4217	319.6391	-0.0592	0.0182	-0.0073	-0.0462	0.0165	0.9585
39.86	-20.8401	413.8704	18.7888	-149.8427	-28.4728	444.9316	19.2295	366.6465	-22.8953	131.9162	10.457	300.8055	-0.0592	0.0182	-0.0073	-0.0462	0.0165	0.9585
39.88	-21.761	437.0218	20.5779	-157.7314	-30.6623	468.8438	19.3583	344.2558	-21.3407	123.9595	9.3641	281.44	-0.0592	0.0182	-0.0073	-0.0462	0.0165	0.9585
39.9	-22.4438	460.4745	22.4714	-165.6616	-32.8353	492.7071	19.4569	321.082	-19.7208	115.7938	8.2551	261.619	-0.0592	0.0182	-0.0073	-0.0462	0.0165	0.9585
39.92	-22.8227	483.7568	24.4086	-173.4647	-34.9051	516.0166	19.3434	296.9733	-18.0971	107.3266	7.2293	241.2488	-0.0592	0.0182	-0.0073	-0.0462	0.0165	0.9585
39.94	-22.8433	506.6895	26.3926	-181.0832	-36.8569	538.5587	18.846	271.692	-16.5097	98.4373	6.3641	220.1519	-0.0592	0.0182	-0.0073	-0.0462	0.0165	0.9585
39.96	-22.4803	529.4309	28.4806	-188.5849	-38.7388	560.4551	17.8447	245.1129	-14.9891	89.0516	5.7112	198.2243	-0.0592	0.0182	-0.0073	-0.0462	0.0165	0.9585
